<svg xmlns="http://www.w3.org/2000/svg" width="183.961" height="72.18" viewBox="0 0 183.961 72.18">
    <defs>
        <linearGradient id="m1jj2w98la" x1=".5" x2=".5" y1="-.082" y2="1.079" gradientUnits="objectBoundingBox">
            <stop offset="0" stop-color="#202831"/>
            <stop offset="1" stop-color="#0b0e11"/>
        </linearGradient>
    </defs>
    <g opacity="0.5">
        <path fill="#454c54" d="M178.276 0H5.68C3.594 0 0 3.585 0 5.66v7.358c0-2.075 3.594-7.547 5.68-7.547h172.6c3.377 0 5.68 3.585 5.68 5.66V5.66A5.557 5.557 0 0 0 178.276 0z"/>
        <path fill="url(#m1jj2w98la)" d="M178.276 2.9H5.68C2.078 2.959 0 7.9 0 9.983v55.846a3.8 3.8 0 0 0 3.793 3.78h176.369a3.8 3.8 0 0 0 3.793-3.78V8.331c.177-3.693-3.593-5.431-5.679-5.431z" transform="translate(0 2.571)"/>
    </g>
</svg>
